<svg xmlns="http://www.w3.org/2000/svg" viewBox="0 0 200 200">
  <rect width="200" height="200" rx="44" fill="#0f172a" />
  <path d="M70 70 C70 46 92 32 108 44 C118 32 142 40 146 60 C162 56 176 70 172 88 C188 96 190 118 174 126 C178 142 164 158 146 156 C140 170 120 178 106 168 C92 182 66 176 60 156 C42 158 28 140 34 122 C16 114 20 92 36 84 C34 68 50 54 66 58 C66 54 68 52 70 70 Z" fill="#6366f1" />
  <path d="M88 96 L112 96" stroke="#f8fafc" stroke-width="10" stroke-linecap="round" />
  <path d="M100 84 L100 120" stroke="#f8fafc" stroke-width="10" stroke-linecap="round" />
  <circle cx="80" cy="120" r="10" fill="#facc15" />
  <circle cx="120" cy="124" r="12" fill="#22d3ee" />
  <circle cx="136" cy="90" r="10" fill="#f472b6" />
  <circle cx="76" cy="80" r="9" fill="#a855f7" />
</svg>
